<svg xmlns="http://www.w3.org/2000/svg" xmlns:xlink="http://www.w3.org/1999/xlink" id="Capa_1" x="0px" y="0px" viewBox="0 0 141.7 141.7" style="enable-background:new 0 0 141.7 141.7;" xml:space="preserve"><style type="text/css">	.st0{fill:#FFFFFF;}	.st1{display:none;}	.st2{display:inline;}</style><g id="Jm7f8w.tif">	<g>		<g>			<path class="st0" d="M68.5,136.7c-1.1-0.4-2.3-0.6-3.4-1.2c-2.9-1.5-4.9-3.9-5.8-7.1c-0.2-0.9-0.6-1.1-1.4-1c-1.7,0-3.4,0-5,0    c-3.2-0.1-5.5-2.4-5.6-5.6c0-2.2-0.4-4.5,1.1-6.5c0.4-0.5-0.1-0.7-0.2-1c-1.4-2.8-1.2-5.7-0.3-8.6c0.2-0.7,0.7-1.4,1.3-1.7    c1.5-0.7,1.5-1.9,1.4-3.2c-0.1-2.1-0.1-4.3,0-6.4c0-0.9-0.3-1.4-1.1-1.9C39.2,86,32.7,76.8,31,64.7c-2.2-16,3.5-28.9,16.5-38.5    c5-3.7,10.8-5.7,17-6.6h0.1c1.5-0.2,2.6,0.4,2.7,1.7c0.1,1.2-0.7,2-2.2,2.2c-7.1,1-13.3,3.8-18.7,8.5c-18,15.7-15.5,44.7,5,57.2    c2.2,1.3,3.2,2.9,3.1,5.5c-0.1,2.3,0,4.6,0,7c0,0.8,0.2,1.1,1,1.1c9.6,0,19.2,0,28.9,0c0.9,0,1.1-0.3,1.1-1.1c0-2.3,0.1-4.6,0-7    c-0.1-2.5,0.9-4.2,3-5.5c8.4-5.2,13.8-12.7,16.2-22.3c0.3-1.2,0.4-2.4,0.7-3.5c0.2-1.3,1.1-2,2.2-1.9c1.2,0.1,1.9,1.1,1.7,2.5    c-1.9,12.3-7.9,21.8-18.4,28.5c-1,0.7-1.5,1.3-1.4,2.5c0.1,2.4,0,4.9,0,7.3c0,0.6,0.1,1,0.7,1.3c1.8,1.1,2.7,2.8,2.7,5    s0.4,4.4-1.2,6.3c-0.3,0.4,0.1,0.6,0.3,0.9c1.4,2.8,1.3,5.7,0.3,8.5c-0.8,2.1-2.6,3.2-4.9,3.2c-1.8,0.1-3.6,0-5.4,0    c-0.5,0-0.9,0-1.1,0.6c-1.3,4.7-4.3,7.5-9,8.5c-0.1,0-0.1,0.1-0.2,0.1C70.6,136.7,69.6,136.7,68.5,136.7z M70.1,106.5    c-5,0-10,0-14.9,0c-3.9,0-4,0-4,3.9c0,2.2,0.5,2.7,2.7,2.7c10.3,0,20.6,0,30.9,0c4.1,0,4.1,0,4.1-4.2c0-1.9-0.6-2.4-2.5-2.4    C81,106.5,75.6,106.5,70.1,106.5z M70.1,117c-5,0-10.1,0-15.1,0c-3.8,0-3.8,0-3.8,3.8c0,2.3,0.4,2.7,2.7,2.7    c10.4,0,20.7,0,31.1,0c4,0,4,0,4-4c0-2.1-0.5-2.5-2.6-2.5C80.9,117,75.5,117,70.1,117z M70.1,127.5c-2,0-4,0-6,0    c-0.8,0-1,0.1-0.7,0.9c1,2.6,3.7,4.4,6.7,4.4s5.8-1.8,6.8-4.4c0.3-0.8,0.1-0.9-0.7-0.9C74.1,127.5,72.1,127.5,70.1,127.5z"></path>			<path class="st0" d="M124.2,59.3c-0.6,1.1-1.4,1.4-2.6,1.4c-1.8-0.1-3.6,0-5.4,0c-1.4,0-2.3-0.8-2.2-1.9c0-1.1,0.9-1.9,2.1-1.9    c2,0,3.9,0,5.9,0c1.1,0,1.8,0.5,2.2,1.5C124.2,58.6,124.2,59,124.2,59.3z"></path>			<path class="st0" d="M42.8,58.8c0-0.9,0-1.7,0-2.6c0.1-1.8,1.4-3.2,3.2-3c2.5,0.3,3.7-0.6,4.4-3c0.7-2.3,0.9-2.2-0.8-4    c-1.9-2-1.9-3.5,0-5.4c0.9-0.9,1.9-1.9,2.8-2.8c1.6-1.5,3.4-1.7,4.7,0c1.5,1.8,2.8,2.1,4.9,0.9c2.3-1.3,2.4-1.1,2.4-3.7    c0-2.4,1.2-3.6,3.7-3.7c1.4,0,2.8,0,4.3,0c2.1,0,3.5,1.3,3.3,3.4c-0.2,2.3,0.4,3.4,2.7,4.1c2.6,0.7,2.5,1,4.4-0.9    c1.7-1.7,3.4-1.7,5.1,0c1.1,1.1,2.2,2.1,3.2,3.2c1.3,1.4,1.5,3.3,0,4.5c-2,1.6-2.2,3-1,5.2c1.2,2.1,0.9,2.2,3.3,2.2    c2.8,0,4,1.1,4,4c0,1.3,0,2.6,0,3.9c-0.1,2.1-1.3,3.6-3.4,3.4c-2.3-0.2-3.5,0.5-4.1,2.8c-0.7,2.5-0.9,2.4,0.9,4.3    c1.7,1.8,1.7,3.4,0,5.2c-1,1-2,2-3,3c-1.5,1.4-3.4,1.6-4.6,0c-1.5-1.9-2.9-2.1-5-0.9c-2.2,1.2-2.3,1-2.4,3.6    c0,2.5-1.2,3.7-3.7,3.7c-1.4,0-2.7,0-4.1,0c-2.2-0.1-3.6-1.3-3.4-3.5s-0.6-3.1-2.6-4c-2.1-0.9-3.2-0.7-4.6,0.9    c-1.5,1.8-3.3,1.7-4.9,0.1c-1.1-1-2.1-2.1-3.2-3.2c-1.4-1.5-1.5-3.3,0-4.6c1.9-1.6,2.2-3,0.9-5.1c-1.2-2.1-1-2.2-3.4-2.3    c-2.7,0-3.9-1.2-3.9-3.8C42.8,60,42.8,59.4,42.8,58.8L42.8,58.8z M55.7,48c0,0.1-0.1,0.5-0.3,0.8c-1.4,2.1-2.3,4.3-2.8,6.7    c-0.2,1-1,1.5-2,1.5c-1.1,0-2.1,0-3.2,0c-0.5,0-0.7,0.1-0.8,0.7c-0.3,2.8-0.3,2.9,2.5,2.9c0.5,0,0.9,0,1.4,0    c1.2,0,1.9,0.5,2.1,1.6c0.5,2.3,1.4,4.4,2.6,6.4c0.6,1,0.5,2-0.4,2.8c-0.7,0.7-1.5,1.4-2.2,2.2c-0.2,0.2-0.6,0.4-0.2,0.8    c0.7,0.7,1.3,1.6,2.2,2c0.5,0.2,1.1-0.9,1.7-1.4c0.4-0.3,0.7-0.7,1.1-1.1c0.9-0.9,1.8-0.9,2.8-0.3c1.9,1.3,4,2.1,6.3,2.6    c1.2,0.2,1.8,1,1.7,2.2c0,1,0,2.1,0,3.1c0,0.3,0,0.8,0.5,0.8c1,0,2.1,0.3,2.9-0.2c0.6-0.4,0.2-1.4,0.2-2.1c0-0.6,0-1.1,0-1.7    c0-1.2,0.5-1.9,1.7-2.1c2.3-0.5,4.4-1.4,6.4-2.6c1-0.6,1.9-0.5,2.7,0.3c0.3,0.3,0.7,0.7,1,1c1.9,1.9,1.9,1.9,3.8-0.1    c0.4-0.5,0.4-0.7,0-1.1c-0.8-0.7-1.5-1.5-2.2-2.2c-0.8-0.8-1-1.7-0.4-2.7c1.3-2,2.2-4.2,2.7-6.5c0.2-1,0.9-1.6,2-1.6s2.1,0,3.2,0    c0.3,0,0.8,0,0.8-0.5c0-1,0.3-2.1-0.2-2.9c-0.3-0.6-1.3-0.2-2-0.3c-0.4,0-0.8,0-1.2,0c-1.9,0-2.3-0.4-2.7-2.2    c-0.4-1.7-1-3.4-1.9-4.9C84,47.4,84,47.4,86,45.4s2-2-0.1-3.8c-0.5-0.4-0.7-0.4-1.1,0c-0.7,0.8-1.5,1.5-2.3,2.3    c-0.8,0.7-1.7,0.9-2.6,0.3c-2-1.3-4.1-2.2-6.4-2.7c-1.2-0.2-1.8-1-1.7-2.2c0-1,0-2.1,0-3.1c0-0.5-0.1-0.7-0.7-0.8    c-2.9-0.3-2.9-0.3-2.9,2.5c0,0.5,0,0.9,0,1.4c0,1.2-0.5,1.9-1.7,2.1c-2.3,0.5-4.4,1.4-6.4,2.6c-1,0.7-2,0.5-2.8-0.4    c-0.7-0.7-1.4-1.5-2.2-2.2c-0.2-0.2-0.4-0.6-0.8-0.2c-0.7,0.7-1.7,1.3-1.9,2.2c-0.2,0.6,1,1.2,1.5,1.7c0.4,0.4,0.8,0.8,1.2,1.2    C55.6,46.8,55.7,47.3,55.7,48z"></path>			<path class="st0" d="M74.9,19.6c3.9,0.4,7.8,1.5,11.4,3.2c13,6.2,20.6,16.5,22.9,30.7c0.2,1.5-0.4,2.5-1.6,2.6    c-1.2,0.2-2-0.6-2.2-2.1C103,38.5,92.3,27,77.1,23.9c-0.9-0.2-1.9-0.3-2.8-0.5c-1.1-0.2-1.7-1.2-1.6-2.2    C72.9,20.3,73.7,19.6,74.9,19.6z"></path>			<path class="st0" d="M72,9.9c0,1,0,2.1,0,3.1c-0.1,1.2-0.7,1.8-1.9,1.9c-1,0.1-1.9-0.8-2-1.9c-0.1-2.1-0.1-4.3,0-6.4    c0-1.1,0.9-1.9,1.9-1.9s1.8,0.7,1.9,1.9C72.1,7.6,72,8.8,72,9.9z"></path>			<path class="st0" d="M33.2,97.6c-0.8,0-1.4-0.4-1.8-1.1c-0.3-0.7-0.3-1.5,0.3-2c1.5-1.6,3.1-3.2,4.7-4.7c0.8-0.8,1.8-0.7,2.5,0    c0.8,0.7,0.9,1.7,0.2,2.5c-1.6,1.7-3.2,3.3-4.9,4.9C34,97.5,33.6,97.6,33.2,97.6z"></path>			<path class="st0" d="M108.9,95.6c-0.1,0.9-0.4,1.5-1,1.8c-0.7,0.4-1.5,0.4-2-0.2c-1.7-1.6-3.3-3.2-4.9-4.9    c-0.7-0.8-0.5-1.7,0.2-2.4c0.7-0.7,1.7-0.9,2.4-0.2c1.7,1.6,3.4,3.3,5,5C108.8,94.9,108.8,95.3,108.9,95.6z"></path>			<path class="st0" d="M31.3,21.8c0.1-0.8,0.4-1.3,1.1-1.7c0.7-0.4,1.5-0.3,2,0.2c1.6,1.6,3.3,3.2,4.8,4.8c0.7,0.8,0.6,1.8-0.2,2.5    c-0.8,0.8-1.8,0.8-2.5,0.1c-1.6-1.5-3.2-3.1-4.7-4.7C31.4,22.8,31.3,22.3,31.3,21.8z"></path>			<path class="st0" d="M107,19.9c0.7,0.1,1.3,0.4,1.7,1.1c0.4,0.7,0.4,1.5-0.2,2c-1.6,1.6-3.2,3.3-4.8,4.8    c-0.8,0.7-1.8,0.6-2.5-0.1c-0.8-0.8-0.9-1.7-0.1-2.5c1.5-1.6,3.1-3.2,4.7-4.7C106.1,20.1,106.5,20,107,19.9z"></path>			<path class="st0" d="M21.1,60.7c-1.1,0-2.1,0-3.2,0s-1.9-0.8-2-1.8c0-1,0.7-1.9,1.8-2c2.2-0.1,4.5-0.1,6.7,0c1.1,0,1.9,1,1.8,2    c-0.1,1.1-0.8,1.8-2,1.8C23.2,60.7,22.2,60.7,21.1,60.7z"></path>			<path class="st0" d="M83.5,58.8c0,7.4-6,13.5-13.4,13.5c-7.5,0-13.5-6-13.5-13.5c0-7.4,6-13.4,13.4-13.4    C77.5,45.4,83.5,51.3,83.5,58.8z M70.1,49.2c-5.3,0-9.6,4.2-9.6,9.5s4.2,9.6,9.5,9.6s9.6-4.2,9.6-9.5    C79.7,53.5,75.4,49.2,70.1,49.2z"></path>			<path class="st0" d="M76.9,58.9c0.9,3.1-0.8,4.5-3.2,6c-2.6,1.6-4.6,1.5-7.2,0S63,61.7,63,58.8c0-3,1-4.7,3.6-6.2    c2.5-1.4,4.4-1.5,6.9,0C76.1,54.1,77.8,55.7,76.9,58.9z M73.2,58.8c-0.2-0.6,0.3-1.5-0.3-1.9c-0.9-0.6-1.8-1.5-2.8-1.5    c-0.9,0-1.9,0.9-2.8,1.4c-0.6,0.4-0.3,1.1-0.3,1.7c0,0.8-0.4,1.7,0.3,2.3c0.8,0.6,1.9,1.4,2.8,1.4s1.9-0.9,2.8-1.5    C73.6,60.3,73.1,59.4,73.2,58.8z"></path>			<path class="st0" d="M72,58.8c0,1.1-0.9,1.9-2,1.8c-1.1-0.1-1.8-0.9-1.8-1.9c0-1.1,0.9-1.9,2-1.9C71.3,56.9,72,57.8,72,58.8z"></path>		</g>	</g></g><g id="chtjo2.tif_00000058564570067767528380000008409585547845794711_" class="st1">	<g class="st2">		<g>			<path d="M18.3,133c-0.4-0.2-0.8-0.4-1.3-0.5c-3.6-1.4-5.5-5.3-4.3-8.9c1.1-3.4,2.3-6.8,3.7-10.1c2.4-5.5,6.7-8.8,12.5-10    c6.3-1.3,12.7-2.6,19-3.8c1.2-0.2,1.8-0.6,1.6-2c-0.1-1.5,0-3,0-4.5c0-1.3,0.2-2.4,1.5-3.2c-5.1-4.5-7.8-10.3-9.1-16.8    c-0.2-0.7-0.6-1.3-1-1.9c-1.7-2-2.5-4.2-2.5-6.8c0-2.7,0-5.3,0.1-8c0-0.6-0.2-0.8-0.5-1.2c-1.9-1.7-2.7-3.9-2.5-6.5    c0.2-3.1,0.6-6.3,0.5-9.4c-0.2-5,0.3-9.9,0.7-14.9c0.1-1.7,0.7-3.2,1.8-4.5C43.6,13.4,50.7,9.9,59,8.7    C71.7,7,82.9,10.6,92.1,19.6c1.5,1.4,2.2,3.2,2.3,5.2c0.6,8.3,0.3,16.5,0.7,24.8c0.1,2.1-0.7,3.8-2.1,5.3    c-0.4,0.5-0.6,0.8-0.5,1.6c0.2,3,0.3,6.1,0,9.1c-0.3,2.3-1.3,4.3-3,5.9c-0.6,0.6-1,1.3-1.3,2.1c-1.9,6.1-4.7,11.6-9.7,16.1    c1,0.2,1.9,0.3,2.5,1.1c0.6,0.8,0.5,1.8,0.5,2.7c0,1.2,0.1,2.5,0,3.7c-0.2,1.6,0.4,2.2,2,2.5c6.1,1.1,12.1,2.3,18.1,3.5    c1.1,0.2,1.3-0.1,1.3-1.1c0-3.3-0.1-6.7,0-10c0-1-0.3-1.6-1.2-2.3c-3.8-2.9-5.5-6.8-5-11.5c0.6-4.9,3.3-8.4,7.8-10.3    c3.1-1.3,5.4,0.2,5.5,3.7c0,1.6,0.1,3.3,0,4.9c0,1,0.4,1.2,1.3,1.2s1.2-0.3,1.1-1.1c-0.1-1.7,0-3.4,0-5.1    c0.1-3.2,2.4-4.8,5.3-3.6c4.4,1.8,7.1,5,7.9,9.7c0.8,4.9-0.9,9-4.8,12.1c-0.9,0.7-1.2,1.3-1.2,2.4c0,10.3,0,20.7,0,31    c0,2.3-0.4,4.4-1.6,6.4c-1.1,1.8-2.9,2.7-4.8,3.4C81.7,133,50,133,18.3,133z M65.2,54c-0.3,0-0.6,0-0.9,0    c-6.9,0.1-13.6,1.8-20.4,3.2c-0.7,0.1-0.7,0.6-0.7,1.1c0,2.1,0,4.2,0,6.3c0,1.3,0.5,2.5,1.4,3.5c1.2,1.2,1.8,2.7,2.1,4.4    c0.7,3.6,2,6.9,4,9.9c6,8.9,18.2,10,25.7,2.4c3.4-3.4,5.4-7.6,6.9-12.1c0.6-1.8,1.3-3.4,2.7-4.7c1.1-1.1,1.7-2.4,1.7-4    c0-1.1,0-2.3,0-3.4c0-3.1,0-3.1-2.9-3.7C78.4,55.4,71.9,54,65.2,54z M65.9,128.1c9.4,0,18.7,0,28.1,0c1.2,0,1.6-0.2,1.5-1.5    c-0.1-6-0.1-12,0-18c0-1.2-0.2-1.8-1.5-1.9c-1.1-0.1-2.4-0.8-3.1-0.4c-0.9,0.6-0.3,2.1-0.3,3.2c-0.1,4.3-3.2,7.5-7.6,7.5    c-11.5,0-22.9,0-34.4,0c-4.2,0-7.4-3.2-7.5-7.4c0-1.1,0.5-2.7-0.2-3.2c-0.8-0.6-2.2,0.3-3.4,0.4s-1.4,0.6-1.4,1.7    c0.1,6.1,0.1,12.1,0,18.2c0,1.4,0.4,1.6,1.7,1.6C47.1,128.1,56.5,128.1,65.9,128.1z M41.1,30.3C41.2,30.3,41.2,30.3,41.1,30.3    c0,1.6-0.1,3.2-0.2,4.8c-0.1,2.1,0.9,3,3,2.6c1.7-0.3,3.4-0.7,5.1-1.1c8.6-1.9,17.3-2.8,26.1-1.1c3.8,0.7,7.6,1.5,11.3,2.3    c2.2,0.5,3.4-0.5,3.3-2.7c-0.1-3.1-0.2-6.2-0.3-9.2c0-1.3-0.5-2.3-1.4-3.2c-5.9-5.5-12.8-8.7-20.8-9.2c-8.9-0.6-17,1.6-23.6,8    c-1.5,1.4-2.5,2.9-2.3,5.1C41.5,27.7,41.2,29,41.1,30.3z M90.2,46.8L90.2,46.8c-0.1-1.1-0.1-2.3-0.1-3.4c0-0.6-0.2-1-0.9-0.8    c-1.9,0.6-3.8,0-5.6-0.5c-5.5-1.3-11-2.3-16.6-2.6c-6.3-0.3-12.4,0.9-18.5,2.2c-2.4,0.5-4.8,1.4-7.3,0.8    c-0.8-0.2-0.7,0.4-0.7,0.8c-0.1,2-0.2,3.9-0.3,5.9c-0.1,2.3,1.3,3.4,3.5,3s4.4-1,6.6-1.4c7.6-1.6,15.2-2.3,23-1.1    c4.4,0.7,8.8,1.6,13.2,2.6c2.4,0.5,3.7-0.6,3.7-3.1C90.2,48.3,90.2,47.6,90.2,46.8z M105.1,73.5c-4.8,3.2-4.6,9.9,0.2,12.8    c1.8,1.1,2.6,2.5,2.5,4.5c-0.1,4.4,0,8.7,0,13.1c0,0.5-0.2,1.2,0.4,1.5c2.6,1.5,4.6,3.7,6.5,6.1c0-0.5,0-1,0-1.5    c0-6.3,0.1-12.6,0-19c0-2.2,0.7-3.8,2.7-4.9c2.9-1.7,4.1-5,3.3-8.3c-0.5-1.8-1.4-3.4-3.3-4.5c0,2,0,3.7,0,5.4c0,2.6-1.4,3.9-4,4    c-1.3,0-2.6,0-3.9,0c-3,0-4.3-1.3-4.4-4.3C105.1,76.9,105.1,75.3,105.1,73.5z M65.7,112c5.6,0,11.2,0,16.8,0    c1.1,0,2.1-0.2,2.6-1.2c0.8-1.7,0.6-3.7,0.2-5.4c-0.2-0.9-1.8-0.6-2.7-0.9c-0.4-0.1-0.9-0.1-1.4-0.3c-1-0.4-1.8,0-2.7,0.5    c-8.7,5-17.5,5-26.2,0c-0.8-0.5-1.5-0.8-2.5-0.5c-1.2,0.4-2.9,0.2-3.6,1c-0.8,0.8-0.2,2.4-0.2,3.7c0,2.3,0.8,3.1,3.2,3.1    C54.7,112,60.2,112,65.7,112z M31.2,118.1c0-3,0-6.1,0-9.1c0-0.7-0.1-1.1-1-0.9c-4.6,0.9-7.9,3.4-9.6,7.8    c-1.1,2.8-2.1,5.7-3.1,8.5c-0.8,2.2,0.3,3.6,2.6,3.7c3.3,0,6.6,0,9.9,0c0.9,0,1.2-0.2,1.2-1.2C31.2,124,31.2,121.1,31.2,118.1z     M100.4,118c0,3,0,6,0,8.9c0,0.9,0.3,1.1,1.1,1.1c3.3,0,6.6,0,9.9,0c2.5,0,3.5-1.4,2.7-3.8c-0.9-2.7-1.9-5.4-2.9-8.1    c-1.7-4.4-4.9-7.1-9.6-8c-0.9-0.2-1.1,0-1.1,0.9C100.4,112.1,100.4,115.1,100.4,118z M54.4,92.4c0,2.4,0,4.5,0,6.7    c0,0.8,0.3,1.4,1,1.7c6.8,3.6,13.5,3.6,20.3,0c0.5-0.3,1-0.5,1-1.2c0-2.7,0-5.4,0-8.3C69.4,95.7,62.1,95.7,54.4,92.4z"></path>			<path d="M65,33c-1.4,0-2.9,0-4.3,0c-3.4-0.1-6-2.8-6-6.2c0-3.3,2.6-6.1,6-6.2c3-0.1,6-0.1,8.9,0c3.4,0.1,6,2.8,6,6.2    c0,3.3-2.6,6.1-6,6.2C68.1,33,66.6,33,65,33z M65,28.1c1.4,0,2.8,0,4.1,0c0.8,0,1.5-0.3,1.5-1.2c0-1-0.6-1.3-1.5-1.3    c-2.7,0-5.3,0-8,0c-0.9,0-1.6,0.4-1.5,1.3c0,0.9,0.7,1.2,1.5,1.2C62.5,28.1,63.8,28.1,65,28.1z"></path>		</g>	</g></g></svg>