<svg xmlns="http://www.w3.org/2000/svg" xmlns:xlink="http://www.w3.org/1999/xlink" id="Capa_1" x="0px" y="0px" viewBox="0 0 141.7 141.7" style="enable-background:new 0 0 141.7 141.7;" xml:space="preserve"><style type="text/css">	.st0{fill:#FFFFFF;}</style><g id="chtjo2.tif_00000058564570067767528380000008409585547845794711_">	<g>		<g>			<path class="st0" d="M17.8,137.1c-0.4-0.2-0.9-0.4-1.3-0.6c-3.8-1.5-5.8-5.5-4.6-9.4c1.2-3.6,2.4-7.2,3.9-10.6    c2.5-5.7,7-9.2,13.1-10.5c6.6-1.4,13.3-2.7,20-4c1.3-0.2,1.9-0.6,1.7-2.1c-0.2-1.6,0-3.1,0-4.7c0-1.4,0.2-2.6,1.6-3.4    c-5.4-4.7-8.1-10.8-9.6-17.6c-0.2-0.8-0.6-1.4-1.1-1.9c-1.7-2-2.7-4.4-2.7-7.1c0-2.8,0-5.6,0.1-8.4c0-0.6-0.2-0.9-0.6-1.2    c-2-1.8-2.8-4.1-2.7-6.8c0.2-3.3,0.6-6.6,0.5-9.9c-0.3-5.3,0.3-10.4,0.7-15.6c0.1-1.8,0.7-3.3,1.8-4.7C44.3,11.7,51.7,8,60.4,6.8    C73.8,5,85.5,8.7,95.2,18.2c1.6,1.5,2.3,3.3,2.5,5.5c0.7,8.7,0.4,17.4,0.7,26c0.1,2.2-0.7,4-2.2,5.6c-0.5,0.5-0.6,0.9-0.6,1.6    c0.2,3.2,0.3,6.4,0,9.5c-0.3,2.4-1.4,4.5-3.2,6.2c-0.6,0.6-1.1,1.3-1.3,2.2c-2,6.4-5,12.2-10.1,16.9c1.1,0.2,2,0.4,2.6,1.2    c0.6,0.9,0.5,1.8,0.5,2.8c0,1.3,0.1,2.6,0,3.9c-0.2,1.7,0.4,2.3,2,2.6c6.4,1.1,12.7,2.4,19,3.7c1.2,0.2,1.3-0.1,1.3-1.1    c0-3.5-0.1-7,0-10.5c0-1.1-0.4-1.7-1.2-2.4c-4-3-5.8-7.1-5.2-12c0.6-5.1,3.4-8.8,8.2-10.8c3.3-1.4,5.7,0.3,5.8,3.8    c0,1.7,0.1,3.5,0,5.2c0,1.1,0.4,1.2,1.3,1.3c0.9,0,1.2-0.3,1.2-1.2c-0.1-1.8,0-3.6,0-5.3c0.1-3.3,2.5-5.1,5.6-3.8    c4.6,1.9,7.5,5.3,8.3,10.2c0.8,5.2-0.9,9.5-5.1,12.7c-0.9,0.7-1.3,1.4-1.3,2.5c0,10.9,0,21.7,0,32.6c0,2.4-0.5,4.6-1.7,6.7    c-1.1,1.9-3,2.8-5,3.6C84.3,137.1,51,137.1,17.8,137.1z M67,54.1c-0.3,0-0.6,0-1,0c-7.3,0.1-14.3,1.9-21.4,3.4    c-0.7,0.2-0.8,0.6-0.8,1.2c0,2.2,0,4.4,0,6.6c0,1.4,0.5,2.7,1.5,3.7c1.2,1.3,1.9,2.8,2.3,4.6c0.8,3.7,2.1,7.2,4.2,10.4    c6.3,9.3,19.1,10.5,26.9,2.6c3.5-3.6,5.7-7.9,7.2-12.7c0.6-1.9,1.4-3.6,2.9-5c1.2-1.1,1.8-2.6,1.8-4.2c0-1.2,0-2.4,0-3.6    c0-3.2,0-3.2-3-3.9C80.8,55.7,74,54.2,67,54.1z M67.7,131.9c9.8,0,19.6,0,29.4,0c1.2,0,1.6-0.2,1.6-1.6c-0.1-6.3-0.1-12.6,0-18.9    c0-1.2-0.2-1.9-1.6-2c-1.1-0.1-2.6-0.9-3.3-0.4c-0.9,0.6-0.3,2.2-0.3,3.3c-0.1,4.5-3.4,7.9-7.9,7.9c-12,0-24.1,0-36.1,0    c-4.4,0-7.7-3.4-7.8-7.8c0-1.2,0.5-2.8-0.2-3.4c-0.8-0.6-2.3,0.3-3.5,0.4s-1.5,0.6-1.4,1.8c0.1,6.4,0.1,12.7,0,19.1    c0,1.4,0.5,1.6,1.7,1.6C48.1,131.9,57.9,131.9,67.7,131.9z M41.8,29.3L41.8,29.3c-0.1,1.7-0.1,3.3-0.2,5c-0.1,2.2,1,3.2,3.1,2.8    c1.8-0.3,3.6-0.8,5.4-1.2c9.1-2,18.2-2.9,27.4-1.2c4,0.7,7.9,1.5,11.9,2.4c2.3,0.5,3.6-0.5,3.5-2.8c-0.1-3.2-0.3-6.5-0.3-9.7    c0-1.4-0.5-2.4-1.5-3.4c-6.2-5.8-13.4-9.2-21.9-9.7c-9.4-0.6-17.9,1.7-24.8,8.4c-1.6,1.5-2.6,3.1-2.4,5.4    C42.1,26.6,41.9,28,41.8,29.3z M93.3,46.6c-0.1,0-0.1,0-0.2,0c0-1.2,0-2.4,0-3.6c0-0.7-0.2-1-1-0.8c-2,0.6-4,0-5.9-0.5    c-5.7-1.3-11.5-2.5-17.4-2.7c-6.6-0.3-13,1-19.4,2.3c-2.5,0.5-5,1.5-7.6,0.8c-0.8-0.2-0.7,0.4-0.8,0.8c-0.1,2-0.2,4.1-0.3,6.1    c-0.1,2.4,1.4,3.6,3.7,3.1s4.6-1,6.9-1.5c8-1.6,16-2.4,24.1-1.2c4.6,0.7,9.2,1.7,13.8,2.7c2.5,0.6,3.9-0.6,3.9-3.2    C93.3,48.2,93.3,47.4,93.3,46.6z M108.9,74.6c-5,3.4-4.8,10.4,0.2,13.5c1.9,1.2,2.7,2.6,2.6,4.8c-0.1,4.6,0,9.2,0,13.8    c0,0.6-0.2,1.2,0.4,1.6c2.7,1.6,4.8,3.8,6.8,6.4c0-0.5,0-1,0-1.6c0-6.6,0.1-13.3,0-19.9c0-2.3,0.7-4,2.8-5.2    c3-1.8,4.3-5.3,3.5-8.7c-0.5-1.9-1.5-3.6-3.5-4.7c0,2.1,0,3.9,0,5.6c0,2.7-1.5,4.1-4.2,4.2c-1.3,0-2.7,0-4,0    c-3.1,0-4.5-1.4-4.6-4.5C108.9,78.2,108.9,76.5,108.9,74.6z M67.6,115.1c5.9,0,11.8,0,17.6,0c1.1,0,2.3-0.2,2.8-1.3    c0.9-1.8,0.6-3.9,0.3-5.7c-0.2-0.9-1.9-0.6-2.9-0.9c-0.5-0.1-1-0.1-1.4-0.3c-1.1-0.4-1.9,0-2.8,0.5c-9.1,5.2-18.3,5.2-27.5,0    c-0.9-0.5-1.6-0.9-2.7-0.5c-1.3,0.4-3,0.2-3.8,1s-0.2,2.6-0.2,3.9c0,2.4,0.9,3.3,3.3,3.3C56,115.1,61.8,115.1,67.6,115.1z     M31.4,121.5c0-3.2,0-6.4,0-9.5c0-0.8-0.1-1.2-1.1-1c-4.8,1-8.3,3.6-10.1,8.2c-1.2,2.9-2.2,6-3.2,8.9c-0.8,2.3,0.3,3.8,2.8,3.8    c3.4,0,6.9,0,10.3,0c1,0,1.3-0.3,1.3-1.3C31.3,127.6,31.4,124.5,31.4,121.5z M103.9,121.4c0,3.1,0,6.3,0,9.4    c0,0.9,0.3,1.2,1.2,1.2c3.5,0,6.9,0,10.4,0c2.6,0,3.6-1.5,2.8-4c-1-2.9-2-5.7-3.1-8.5c-1.8-4.6-5.2-7.4-10.1-8.4    c-1-0.2-1.2,0-1.2,0.9C103.9,115.1,103.9,118.2,103.9,121.4z M55.7,94.4c0,2.5,0,4.7,0,7c0,0.9,0.3,1.4,1,1.8    c7.1,3.8,14.2,3.8,21.3,0c0.5-0.3,1-0.5,1-1.3c0-2.8,0-5.7,0-8.7C71.4,97.9,63.8,98,55.7,94.4z"></path>			<path class="st0" d="M66.8,32.1c-1.5,0-3,0-4.5,0c-3.6-0.1-6.3-3-6.3-6.5s2.8-6.4,6.3-6.5c3.1-0.1,6.2-0.1,9.4,0    c3.6,0.1,6.3,2.9,6.3,6.5c0,3.5-2.8,6.4-6.3,6.5C70.1,32.2,68.5,32.1,66.8,32.1z M66.8,27c1.5,0,2.9,0,4.4,0    c0.9,0,1.5-0.3,1.6-1.2c0-1-0.7-1.4-1.6-1.4c-2.8,0-5.6,0-8.4,0c-0.9,0-1.6,0.4-1.6,1.4c0,0.9,0.7,1.2,1.6,1.2    C64.2,27,65.5,27,66.8,27z"></path>		</g>	</g></g></svg>